<svg width="65" height="64" viewBox="0 0 65 64" fill="none" xmlns="http://www.w3.org/2000/svg">
<path d="M32.6001 43.4288C31.7052 43.4291 30.8299 43.1668 30.0827 42.6744C29.3355 42.1819 28.7492 41.481 28.3966 40.6585C27.659 40.4847 26.933 40.2648 26.2229 40.0002L26.1841 39.9865C24.0985 39.2038 22.1735 38.0465 20.5041 36.5716C18.2672 34.5984 16.5471 32.108 15.4936 29.3174C14.4401 26.5269 14.0852 23.521 14.4599 20.5618C14.8346 17.6027 15.9275 14.7801 17.6433 12.3402C19.3592 9.90037 21.6458 7.91729 24.3039 6.56389C26.9619 5.2105 29.9107 4.52789 32.8931 4.57558C35.8755 4.62327 38.801 5.39982 41.4144 6.83752C44.0279 8.27522 46.2499 10.3304 47.8868 12.8239C49.5238 15.3174 50.5259 18.1734 50.8058 21.1431C50.8949 22.0871 50.1201 22.8573 49.1715 22.8573C48.2252 22.8573 47.4686 22.0871 47.3589 21.1453C47.0568 18.5472 46.074 16.0748 44.51 13.9782C42.946 11.8815 40.8562 10.235 38.4518 9.20496C36.0475 8.17492 33.4138 7.79791 30.817 8.11204C28.2202 8.42616 25.7524 9.42029 23.663 10.9939C21.5736 12.5676 19.9367 14.6649 18.9178 17.074C17.8988 19.4831 17.5339 22.1185 17.86 24.7138C18.1861 27.3091 19.1915 29.7723 20.7748 31.8544C22.358 33.9365 24.4629 35.5638 26.8766 36.5716L26.9681 36.6105C27.4252 36.7979 27.8961 36.9625 28.3761 37.1065C28.8164 36.0336 29.648 35.1682 30.7025 34.6855C31.7569 34.2029 32.9554 34.139 34.0552 34.5068C35.1551 34.8747 36.0739 35.6468 36.6258 36.6668C37.1777 37.6867 37.3213 38.8783 37.0275 40.0002C36.7741 40.9817 36.2016 41.8511 35.4002 42.4717C34.5987 43.0924 33.6137 43.429 32.6001 43.4288ZM16.6001 40.0002H19.2721C17.9936 39.0048 16.8298 37.8702 15.8023 36.6173C14.1331 36.8129 12.5938 37.6146 11.4768 38.8703C10.3597 40.1259 9.74271 41.7481 9.74292 43.4288V45.0631C9.74292 53.5613 19.3658 59.4288 32.6001 59.4288C45.8343 59.4288 55.4572 53.2391 55.4572 45.0631V43.4288C55.4572 41.6101 54.7348 39.866 53.4488 38.58C52.1628 37.2941 50.4187 36.5716 48.6001 36.5716H40.2686C40.5999 37.6828 40.6857 38.8526 40.5201 40.0002H48.6001L48.9315 40.0162C49.7794 40.0986 50.5664 40.4937 51.1389 41.1245C51.7115 41.7554 52.0286 42.5768 52.0286 43.4288V45.0631L52.0172 45.4311C51.6972 51.1911 43.8595 56.0002 32.6001 56.0002C20.9178 56.0002 13.1715 51.1751 13.1715 45.0631V43.4288L13.1875 43.0973C13.2698 42.2494 13.665 41.4625 14.2958 40.8899C14.9267 40.3174 15.7481 40.0002 16.6001 40.0002ZM44.0286 22.8573C44.029 24.9277 43.4669 26.9593 42.4025 28.735C41.3381 30.5108 39.8113 31.9641 37.9852 32.9396C36.5135 31.5969 34.5923 30.854 32.6001 30.8573C33.6506 30.8573 34.6909 30.6504 35.6615 30.2484C36.6321 29.8463 37.514 29.2571 38.2569 28.5142C38.9998 27.7713 39.5891 26.8894 39.9911 25.9188C40.3931 24.9482 40.6001 23.9079 40.6001 22.8573C40.6001 21.8068 40.3931 20.7665 39.9911 19.7959C39.5891 18.8253 38.9998 17.9434 38.2569 17.2005C37.514 16.4576 36.6321 15.8684 35.6615 15.4663C34.6909 15.0643 33.6506 14.8573 32.6001 14.8573C30.4783 14.8573 28.4435 15.7002 26.9432 17.2005C25.4429 18.7008 24.6001 20.7356 24.6001 22.8573C24.6001 24.9791 25.4429 27.0139 26.9432 28.5142C28.4435 30.0145 30.4783 30.8573 32.6001 30.8573C30.5246 30.8573 28.6366 31.6482 27.2172 32.9419C25.3937 31.9649 23.8679 30.5134 22.8012 28.7408C21.8948 27.2308 21.3497 25.5317 21.2084 23.7763C21.067 22.0208 21.3333 20.2565 21.9864 18.6209C22.6395 16.9854 23.6617 15.5229 24.9733 14.3476C26.2849 13.1723 27.8504 12.3161 29.5476 11.8457C31.2447 11.3753 33.0276 11.3035 34.7571 11.6359C36.4866 11.9683 38.1159 12.6959 39.5177 13.7619C40.9196 14.8279 42.0561 16.2035 42.8386 17.7812C43.6211 19.359 44.0284 21.0962 44.0286 22.8573Z" fill="#00C3FF"/>
</svg>
