<svg width="65" height="64" viewBox="0 0 65 64" fill="none" xmlns="http://www.w3.org/2000/svg">
<path d="M32.4 50.667C36.8183 50.667 40.4 47.0853 40.4 42.667C40.4 38.2487 36.8183 34.667 32.4 34.667C27.9817 34.667 24.4 38.2487 24.4 42.667C24.4 47.0853 27.9817 50.667 32.4 50.667Z" stroke="#00C3FF" stroke-width="3"/>
<path d="M24.7013 42.5601L21.928 45.3334L17.9867 49.1121C17.1227 49.9414 16.6907 50.3547 16.5413 50.7067C16.3734 51.0811 16.3514 51.5047 16.4797 51.8944C16.608 52.2842 16.8772 52.6119 17.2347 52.8134C17.56 52.9974 18.1493 53.0534 19.3227 53.1707C19.984 53.2347 20.3173 53.2667 20.5947 53.3654C20.8963 53.4696 21.1717 53.638 21.4019 53.859C21.6321 54.08 21.8116 54.3483 21.928 54.6454C22.032 54.9121 22.0667 55.2294 22.1333 55.8667C22.2533 56.9921 22.3147 57.5547 22.5067 57.8667C22.944 58.5787 23.8693 58.8587 24.704 58.5334C25.0693 58.3867 25.5013 57.9734 26.3653 57.1467L32.4 51.3601L38.4347 57.1467C39.2987 57.9734 39.7307 58.3867 40.096 58.5334C40.9307 58.8587 41.856 58.5787 42.2933 57.8667C42.4853 57.5547 42.5467 56.9921 42.6667 55.8667C42.7333 55.2294 42.768 54.9121 42.872 54.6454C42.9886 54.3484 43.1681 54.0801 43.3983 53.8592C43.6285 53.6382 43.9038 53.4697 44.2053 53.3654C44.4853 53.2667 44.816 53.2347 45.4773 53.1707C46.6507 53.0561 47.24 52.9974 47.5653 52.8134C47.9228 52.6119 48.192 52.2842 48.3203 51.8944C48.4486 51.5047 48.4266 51.0811 48.2587 50.7067C48.1093 50.3547 47.6773 49.9414 46.8133 49.1121L42.8693 45.3334L40.4 42.8614" stroke="#00C3FF" stroke-width="3"/>
<path d="M46.5867 47.9895C51.8453 47.9335 54.7787 47.6028 56.7227 45.6562C59.0667 43.3148 59.0667 39.5415 59.0667 32.0002V24.0002M19.0667 47.9948C13.2667 47.9628 10.1253 47.7068 8.07734 45.6562C5.73334 43.3148 5.73334 39.5415 5.73334 32.0002V21.3335C5.73334 13.7922 5.73334 10.0188 8.07734 7.6775C10.4187 5.3335 14.192 5.3335 21.7333 5.3335H43.0667C50.608 5.3335 54.3813 5.3335 56.7227 7.6775C58.0293 8.98416 58.608 10.7335 58.864 13.3335M24.4 16.0002H40.4M19.0667 25.3335H24.4M45.7333 25.3335H33.7333" stroke="#00C3FF" stroke-width="3" stroke-linecap="round"/>
</svg>
