<svg width="37" height="36" viewBox="0 0 37 36" fill="none" xmlns="http://www.w3.org/2000/svg">
<path d="M7.59147 7.87728C6.91565 7.8635 6.69963 7.9983 6.49287 8.48852C6.25062 9.06452 6.01918 9.64511 5.78464 10.2257C5.57326 10.7496 5.66584 11.0361 6.12564 11.3838C6.94033 12.0012 7.74885 12.6278 8.562 13.2466C8.61909 13.2895 8.70087 13.3217 8.7703 13.3232C9.83959 13.3539 10.8039 13.6802 11.6927 14.2746C12.0676 14.5258 12.5398 14.2914 12.6447 13.8502C12.6771 13.7139 12.6987 13.5745 12.7157 13.4351C13.1323 10.2563 16.3679 7.99218 19.5341 8.69379C22.0615 9.25447 23.5721 10.8385 24.1276 13.3386C24.2633 13.9529 24.5843 14.0969 25.1567 13.8747C25.6782 13.6725 26.2291 13.4029 26.7645 13.409C27.7227 13.4213 28.3939 12.9786 29.0651 12.4102C29.5727 11.9798 30.1251 11.6014 30.6621 11.2061C30.9907 10.9641 31.1265 10.6439 30.9876 10.2671C30.7315 9.57311 30.4491 8.88835 30.156 8.20971C29.9909 7.82673 29.656 7.68886 29.241 7.75779C28.3815 7.90179 27.5221 8.04273 26.6611 8.17601C26.2245 8.24341 25.8619 8.12545 25.5687 7.76698C25.3264 7.47133 25.0379 7.21243 24.7602 6.94741C24.5056 6.70537 24.4161 6.42196 24.4701 6.08035C24.5997 5.2623 24.7247 4.44426 24.8466 3.62622C24.9392 3.00426 24.7926 2.73924 24.2078 2.49567C23.64 2.25822 23.0675 2.0315 22.4951 1.80477C21.9458 1.58571 21.6927 1.65924 21.3394 2.13567C20.8441 2.80358 20.3442 3.46843 19.8612 4.14554C19.6005 4.51167 19.2764 4.69243 18.8166 4.66026C18.4849 4.63728 18.1485 4.64035 17.8168 4.66026C17.4063 4.68477 17.1055 4.53464 16.8617 4.20528C16.3371 3.49601 15.7986 2.79592 15.2554 2.0989C14.9376 1.68988 14.6583 1.62094 14.1754 1.81396C13.6045 2.04222 13.0351 2.2766 12.4657 2.51098C11.8393 2.76835 11.7066 3.03643 11.8192 3.70741C11.9581 4.53618 12.0707 5.36801 12.2003 6.1983C12.2559 6.55524 12.1494 6.84784 11.8825 7.09294C11.6094 7.34418 11.3147 7.58009 11.0786 7.86196C10.7669 8.23575 10.4012 8.31081 9.94451 8.23269C9.1113 8.09022 8.27347 7.97839 7.58993 7.87728H7.59147ZM18.3275 34.3181C20.5 34.3181 22.6725 34.3181 24.8466 34.3181C25.294 34.3181 25.4221 34.2002 25.4267 33.7559C25.4345 33.1815 25.4499 32.6055 25.4237 32.0325C25.3218 29.7546 24.2217 28.1353 22.1402 27.1702C21.8331 27.0278 21.5662 27.0553 21.2669 27.2162C19.3196 28.2594 17.3616 28.2563 15.4159 27.21C15.1305 27.0569 14.8759 27.0323 14.5781 27.1626C13.0351 27.8412 11.972 28.9411 11.4859 30.568C11.1835 31.5791 11.2746 32.6162 11.2638 33.6456C11.2576 34.2216 11.3579 34.3181 11.9257 34.3181C14.0596 34.3181 16.1936 34.3181 18.329 34.3181H18.3275ZM14.3482 25.8145C14.3312 25.7318 14.3327 25.7026 14.3204 25.6827C13.8205 24.9428 13.4039 24.1738 13.4131 23.247C13.4131 23.1995 13.3946 23.1443 13.3684 23.1045C13.1122 22.7277 12.1016 22.4887 11.6896 22.7047C9.73621 23.7234 7.78126 23.7311 5.83402 22.6986C5.55165 22.5484 5.28781 22.5224 4.99001 22.6449C3.45012 23.2838 2.42095 24.3837 1.91486 25.9661C1.58003 27.0124 1.71273 28.0909 1.69113 29.1586C1.68187 29.6565 1.80068 29.7745 2.29443 29.7745C4.828 29.7745 7.36157 29.7638 9.89359 29.7714C10.1929 29.7714 10.3503 29.6764 10.4768 29.4007C11.1619 27.9055 12.2312 26.775 13.751 26.0902C13.947 26.0014 14.1414 25.911 14.3466 25.816L14.3482 25.8145ZM22.3809 25.8604C22.3516 25.8405 22.3886 25.8773 22.4334 25.8941C24.2479 26.5529 25.5131 27.7769 26.2831 29.5309C26.3356 29.6489 26.5562 29.7638 26.6997 29.7638C29.1407 29.7775 31.5832 29.776 34.0258 29.7714C34.4285 29.7714 34.5581 29.6366 34.5612 29.2429C34.5658 28.6424 34.5627 28.0434 34.5612 27.4429C34.5581 25.3871 33.2435 23.4523 31.3363 22.6725C31.0031 22.5362 30.713 22.5423 30.3874 22.7123C28.451 23.7249 26.5007 23.7295 24.5719 22.6986C24.1522 22.4749 23.822 22.5959 23.4486 22.7644C23.1385 22.9054 23.2481 23.1673 23.211 23.391C23.2002 23.4538 23.1971 23.5197 23.1755 23.5779C22.9194 24.3178 22.6602 25.0562 22.3794 25.8574L22.3809 25.8604ZM21.935 22.8104C21.9396 20.8112 20.3164 19.1752 18.3383 19.1813C16.3509 19.1874 14.7293 20.7913 14.7247 22.7537C14.7216 24.7927 16.2676 26.3644 18.2951 26.3828C20.3071 26.4012 21.9304 24.8095 21.935 22.8104ZM27.4388 14.6805C25.49 14.6683 23.8791 16.2354 23.8251 18.1227C23.7711 20.01 25.2478 21.7763 27.3863 21.8238C29.332 21.8683 31.0061 20.226 31.0169 18.3081C31.0277 16.2875 29.457 14.6943 27.4388 14.6805ZM8.71167 14.6805C6.71814 14.682 5.11345 16.2875 5.13042 18.2652C5.14739 20.2169 6.76443 21.8238 8.71784 21.8284C10.6728 21.833 12.3361 20.1862 12.3377 18.2422C12.3392 16.2982 10.6898 14.6775 8.71167 14.6805Z" fill="white"/>
<path d="M7.59147 7.87728C8.275 7.97992 9.11284 8.09175 9.94605 8.23269C10.4028 8.31081 10.7685 8.23575 11.0801 7.86196C11.3162 7.57856 11.6109 7.34418 11.884 7.09294C12.151 6.84937 12.2574 6.55524 12.2019 6.1983C12.0738 5.36801 11.9596 4.53618 11.8208 3.70741C11.7081 3.03796 11.8408 2.76988 12.4673 2.51098C13.0366 2.2766 13.606 2.04222 14.1769 1.81396C14.6583 1.62094 14.9391 1.68988 15.257 2.0989C15.8001 2.79592 16.3386 3.49601 16.8632 4.20528C17.107 4.53464 17.4063 4.68477 17.8183 4.66026C18.1501 4.64035 18.4864 4.63728 18.8182 4.66026C19.2764 4.69243 19.602 4.51167 19.8628 4.14554C20.3442 3.46843 20.8456 2.80358 21.3409 2.13567C21.6943 1.65924 21.9473 1.58571 22.4966 1.80477C23.0691 2.03303 23.6415 2.25822 24.2093 2.49567C24.7941 2.74077 24.9407 3.00426 24.8481 3.62622C24.7262 4.44426 24.5997 5.2623 24.4716 6.08035C24.4176 6.42196 24.5071 6.70537 24.7617 6.94741C25.0394 7.21243 25.328 7.47133 25.5702 7.76698C25.8649 8.12545 26.226 8.24341 26.6627 8.17601C27.5236 8.04273 28.3831 7.90179 29.2425 7.75779C29.6576 7.68733 29.9924 7.82673 30.1575 8.20971C30.4507 8.88835 30.733 9.57464 30.9892 10.2671C31.128 10.6439 30.9923 10.9641 30.6636 11.2061C30.1266 11.6014 29.5743 11.9798 29.0666 12.4102C28.3954 12.9786 27.7242 13.4228 26.766 13.409C26.2306 13.4014 25.6798 13.671 25.1583 13.8747C24.5874 14.0969 24.2664 13.9529 24.1291 13.3386C23.5736 10.8385 22.063 9.25447 19.5356 8.69379C16.3695 7.99218 13.1338 10.2563 12.7172 13.4351C12.6987 13.5745 12.6787 13.7139 12.6463 13.8502C12.5413 14.2914 12.0692 14.5258 11.6942 14.2746C10.8055 13.6802 9.84113 13.3539 8.77184 13.3232C8.70087 13.3217 8.61909 13.2895 8.56354 13.2466C7.75039 12.6278 6.94187 12.0012 6.12718 11.3838C5.66737 11.0361 5.57634 10.7496 5.78618 10.2257C6.01917 9.64511 6.25216 9.06605 6.49441 8.48852C6.69962 7.99677 6.91718 7.86196 7.59301 7.87728H7.59147Z" fill="black"/>
<path d="M18.3275 34.318C16.1935 34.318 14.0596 34.318 11.9241 34.318C11.3563 34.318 11.256 34.2215 11.2622 33.6455C11.273 32.6145 11.1819 31.5789 11.4844 30.5679C11.9704 28.941 13.0335 27.841 14.5765 27.1624C14.8743 27.0322 15.1289 27.0552 15.4143 27.2099C17.36 28.2562 19.3165 28.2593 21.2653 27.216C21.5662 27.0552 21.8316 27.0276 22.1386 27.1701C24.2216 28.1352 25.3202 29.7559 25.4221 32.0324C25.4483 32.6053 25.4329 33.1813 25.4252 33.7558C25.419 34.2 25.2925 34.318 24.845 34.318C22.6725 34.318 20.5 34.318 18.3259 34.318H18.3275Z" fill="black"/>
<path d="M14.3481 25.8128C14.1429 25.9078 13.9485 25.9997 13.7526 26.087C12.2312 26.7718 11.1634 27.9023 10.4784 29.3975C10.3518 29.6732 10.1945 29.7682 9.89512 29.7682C7.36155 29.7621 4.82798 29.7713 2.29596 29.7713C1.80066 29.7713 1.68185 29.6533 1.69265 29.1554C1.71425 28.0877 1.58156 27.0092 1.91638 25.9629C2.42248 24.3805 3.45165 23.2805 4.99154 22.6417C5.28933 22.5177 5.55164 22.5452 5.83555 22.6954C7.78433 23.7294 9.73928 23.7202 11.6911 22.7015C12.1031 22.487 13.1138 22.7245 13.3699 23.1013C13.3977 23.1411 13.4146 23.1963 13.4146 23.2438C13.4054 24.1706 13.822 24.9396 14.3219 25.6795C14.3343 25.6994 14.3327 25.7285 14.3497 25.8113L14.3481 25.8128Z" fill="black"/>
<path d="M22.3809 25.8587C22.6617 25.0575 22.921 24.3191 23.1771 23.5792C23.1971 23.5194 23.2018 23.4551 23.2126 23.3923C23.2496 23.1686 23.1401 22.9067 23.4502 22.7657C23.822 22.5972 24.1538 22.4747 24.5735 22.6998C26.5022 23.7324 28.451 23.7262 30.389 22.7136C30.7145 22.5436 31.0046 22.5375 31.3379 22.6738C33.245 23.4536 34.5596 25.3884 34.5627 27.4442C34.5627 28.0447 34.5673 28.6437 34.5627 29.2442C34.5596 29.6379 34.43 29.7712 34.0273 29.7727C31.5848 29.7773 29.1438 29.7788 26.7012 29.765C26.5577 29.765 26.3371 29.6501 26.2846 29.5322C25.5162 27.7781 24.2495 26.5541 22.4349 25.8954C22.3902 25.8786 22.3516 25.8418 22.3825 25.8617L22.3809 25.8587Z" fill="black"/>
<path d="M21.935 22.8088C21.9303 24.808 20.3087 26.3996 18.2951 26.3812C16.2676 26.3629 14.72 24.7911 14.7246 22.7521C14.7277 20.7897 16.3509 19.1858 18.3383 19.1797C20.3179 19.1736 21.9396 20.8112 21.935 22.8088Z" fill="black"/>
<path d="M27.4387 14.6788C29.4554 14.6926 31.0262 16.2858 31.0169 18.3064C31.0076 20.2243 29.332 21.865 27.3863 21.8221C25.2477 21.7746 23.7726 20.0068 23.8251 18.121C23.8791 16.2352 25.49 14.6665 27.4387 14.6788Z" fill="black"/>
<path d="M8.71011 14.6787C10.6882 14.6772 12.3376 16.2979 12.3361 18.2404C12.3346 20.1829 10.6712 21.8312 8.71628 21.8266C6.76287 21.822 5.14583 20.2151 5.12886 18.2634C5.11188 16.2872 6.71658 14.6802 8.71011 14.6787Z" fill="black"/>
</svg>
