<svg width="32" height="33" viewBox="0 0 32 33" fill="none" xmlns="http://www.w3.org/2000/svg">
<path d="M6 6.50019C6 5.43932 6.42143 4.4219 7.17157 3.67176C7.92172 2.92161 8.93913 2.50019 10 2.50019C11.0609 2.50019 12.0783 2.92161 12.8284 3.67176C13.5786 4.4219 14 5.43932 14 6.50019C14 7.56105 13.5786 8.57847 12.8284 9.32861C12.0783 10.0788 11.0609 10.5002 10 10.5002C8.93913 10.5002 7.92172 10.0788 7.17157 9.32861C6.42143 8.57847 6 7.56105 6 6.50019ZM10 4.50019C9.46957 4.50019 8.96086 4.7109 8.58579 5.08597C8.21071 5.46104 8 5.96975 8 6.50019C8 7.03062 8.21071 7.53933 8.58579 7.9144C8.96086 8.28947 9.46957 8.50019 10 8.50019C10.5304 8.50019 11.0391 8.28947 11.4142 7.9144C11.7893 7.53933 12 7.03062 12 6.50019C12 5.96975 11.7893 5.46104 11.4142 5.08597C11.0391 4.7109 10.5304 4.50019 10 4.50019ZM19.558 9.66819C19.139 9.34857 18.7873 8.94931 18.523 8.49334C18.2588 8.03737 18.0873 7.53369 18.0183 7.01122C17.9494 6.48876 17.9843 5.95782 18.1212 5.44891C18.2581 4.94 18.4941 4.46315 18.8159 4.04576C19.1376 3.62838 19.5387 3.27868 19.996 3.01677C20.4533 2.75486 20.9578 2.58589 21.4806 2.51958C22.0034 2.45327 22.5342 2.49093 23.0424 2.63038C23.5506 2.76983 24.0263 3.00834 24.442 3.33219C25.2606 3.98699 25.7894 4.93697 25.9147 5.97772C26.04 7.01847 25.7517 8.06681 25.1119 8.89718C24.4721 9.72754 23.5319 10.2736 22.4936 10.4177C21.4553 10.5619 20.3999 10.2928 19.558 9.66819ZM22 4.50019C21.4696 4.50019 20.9609 4.7109 20.5858 5.08597C20.2107 5.46104 20 5.96975 20 6.50019C20 7.03062 20.2107 7.53933 20.5858 7.9144C20.9609 8.28947 21.4696 8.50019 22 8.50019C22.5304 8.50019 23.0391 8.28947 23.4142 7.9144C23.7893 7.53933 24 7.03062 24 6.50019C24 5.96975 23.7893 5.46104 23.4142 5.08597C23.0391 4.7109 22.5304 4.50019 22 4.50019ZM5 12.5002H10.34C10.12 13.1262 10 13.8002 10 14.5002H5C4.73478 14.5002 4.48043 14.6055 4.29289 14.7931C4.10536 14.9806 4 15.235 4 15.5002C4 17.1342 4.65 18.3462 5.676 19.1702C6.148 19.5502 6.714 19.8562 7.354 20.0802C6.88402 20.5797 6.52184 21.1707 6.29 21.8162C5.61867 21.5465 4.9901 21.1807 4.424 20.7302C2.92 19.5202 2 17.7322 2 15.5002C2 14.7045 2.31607 13.9415 2.87868 13.3789C3.44129 12.8163 4.20435 12.5002 5 12.5002ZM12.536 12.5002C12.0056 13.4194 11.862 14.5117 12.137 15.5368C12.4119 16.5619 13.0828 17.4358 14.002 17.9662C14.9212 18.4966 16.0135 18.6402 17.0386 18.3652C18.0637 18.0903 18.9376 17.4194 19.468 16.5002C19.9984 15.5809 20.142 14.4886 19.867 13.4636C19.5921 12.4385 18.9212 11.5646 18.002 11.0342C17.0828 10.5038 15.9905 10.3602 14.9654 10.6351C13.9403 10.9101 13.0664 11.5809 12.536 12.5002ZM15.552 12.5502C15.845 12.484 16.1492 12.4845 16.442 12.5516C16.7349 12.6186 17.0089 12.7507 17.2439 12.9378C17.4788 13.125 17.6688 13.3626 17.7997 13.633C17.9305 13.9034 17.999 14.1998 18 14.5002C17.9998 14.8765 17.8935 15.2451 17.6933 15.5637C17.493 15.8823 17.2069 16.1379 16.8679 16.3012C16.5289 16.4645 16.1506 16.5289 15.7767 16.4869C15.4027 16.4448 15.0482 16.2982 14.7539 16.0637C14.4595 15.8293 14.2373 15.5165 14.1128 15.1614C13.9882 14.8063 13.9663 14.4233 14.0497 14.0563C14.133 13.6894 14.3182 13.3534 14.584 13.087C14.8497 12.8205 15.1853 12.6345 15.552 12.5502ZM26.324 19.1702C25.852 19.5502 25.286 19.8562 24.646 20.0802C25.1153 20.5799 25.4768 21.1708 25.708 21.8162C26.388 21.5382 27.018 21.1762 27.576 20.7302C29.08 19.5202 30 17.7322 30 15.5002C30 14.7045 29.6839 13.9415 29.1213 13.3789C28.5587 12.8163 27.7956 12.5002 27 12.5002H21.66C21.88 13.1262 22 13.8002 22 14.5002H27C27.2652 14.5002 27.5196 14.6055 27.7071 14.7931C27.8946 14.9806 28 15.235 28 15.5002C28 17.1342 27.35 18.3462 26.324 19.1702ZM21 20.5002C21.7956 20.5002 22.5587 20.8163 23.1213 21.3789C23.6839 21.9415 24 22.7045 24 23.5002C24 25.7322 23.082 27.5202 21.576 28.7302C20.094 29.9202 18.106 30.5002 16 30.5002C13.894 30.5002 11.906 29.9202 10.424 28.7302C8.92 27.5202 8 25.7322 8 23.5002C7.99894 23.1059 8.07582 22.7153 8.22621 22.3509C8.3766 21.9864 8.59754 21.6553 8.87633 21.3765C9.15511 21.0977 9.48625 20.8768 9.8507 20.7264C10.2152 20.576 10.6057 20.4991 11 20.5002H21ZM21 22.5002H11C10.7348 22.5002 10.4804 22.6055 10.2929 22.7931C10.1054 22.9806 10 23.235 10 23.5002C10 25.1342 10.65 26.3462 11.676 27.1702C12.728 28.0142 14.24 28.5002 16 28.5002C17.76 28.5002 19.272 28.0142 20.324 27.1702C21.35 26.3462 22 25.1342 22 23.5002C22 23.235 21.8946 22.9806 21.7071 22.7931C21.5196 22.6055 21.2652 22.5002 21 22.5002Z" fill="black"/>
</svg>
