<svg width="36" height="36" viewBox="0 0 36 36" fill="none" xmlns="http://www.w3.org/2000/svg">
<path d="M2.85714 9.00007C2.85714 8.65908 2.9926 8.33205 3.23372 8.09093C3.47483 7.84981 3.80186 7.71436 4.14285 7.71436H27.2857C27.6267 7.71436 27.9537 7.84981 28.1948 8.09093C28.436 8.33205 28.5714 8.65908 28.5714 9.00007C28.5714 9.34106 28.436 9.66809 28.1948 9.90921C27.9537 10.1503 27.6267 10.2858 27.2857 10.2858H4.14285C3.80186 10.2858 3.47483 10.1503 3.23372 9.90921C2.9926 9.66809 2.85714 9.34106 2.85714 9.00007ZM2.85714 27.0001C2.85714 26.6591 2.9926 26.3321 3.23372 26.0909C3.47483 25.8498 3.80186 25.7144 4.14285 25.7144H24.7143C25.0553 25.7144 25.3823 25.8498 25.6234 26.0909C25.8645 26.3321 26 26.6591 26 27.0001C26 27.3411 25.8645 27.6681 25.6234 27.9092C25.3823 28.1503 25.0553 28.2858 24.7143 28.2858H4.14285C3.80186 28.2858 3.47483 28.1503 3.23372 27.9092C2.9926 27.6681 2.85714 27.3411 2.85714 27.0001ZM4.14285 16.7144C3.80186 16.7144 3.47483 16.8498 3.23372 17.0909C2.9926 17.3321 2.85714 17.6591 2.85714 18.0001C2.85714 18.3411 2.9926 18.6681 3.23372 18.9092C3.47483 19.1503 3.80186 19.2858 4.14285 19.2858H29.8571C30.1981 19.2858 30.5252 19.1503 30.7663 18.9092C31.0074 18.6681 31.1429 18.3411 31.1429 18.0001C31.1429 17.6591 31.0074 17.3321 30.7663 17.0909C30.5252 16.8498 30.1981 16.7144 29.8571 16.7144H4.14285Z" fill="#00C3FF"/>
</svg>
