<?xml version="1.0" encoding="UTF-8"?>
<svg id="Layer_1" data-name="Layer 1" xmlns="http://www.w3.org/2000/svg" viewBox="0 0 262.06 273.78">
  <path d="m165.48,56.37c0,5.23-.09,10.29.02,15.35.24,10.65,7.8,19.64,18.3,21.26,4.24.65,8.64.3,12.97.39,1.82.03,3.63,0,5.79,0v2.87c0,15.33.03,30.66-.05,45.99,0,1.39-.49,2.96-1.24,4.13-7.98,12.49-16.11,24.88-24.06,37.39-1.25,1.97-2.06,4.33-2.57,6.63-.42,1.92-1.07,2.54-3.06,2.53-19.16-.08-38.33-.05-57.49-.03-1.07,0-2.44-.18-3.14.38-1.03.82-2.25,2.31-2.15,3.39.1,1.1,1.6,2.21,2.71,3,.56.4,1.62.12,2.45.12,18.5,0,36.99,0,55.49,0h3.2c-.79,5.03-1.54,9.77-2.29,14.52-.2,1.23-.69,2.49-.55,3.68.17,1.44.47,3.4,1.45,4.06.96.65,3.17.46,4.25-.25,8.71-5.69,17.29-11.59,25.9-17.43.27-.18.53-.37,1.05-.73.05.96.11,1.74.11,2.53,0,8.25.03,16.5,0,24.75-.03,9.38-6.51,15.88-15.87,15.88-38.58.02-77.16.02-115.73,0-9.41,0-15.93-6.44-15.93-15.8-.02-52.99-.02-105.98,0-158.98,0-8.95,6.47-15.71,15.29-15.73,31.25-.07,62.49-.03,93.74-.03.33,0,.66.06,1.44.13Zm-22.51,42.31c-9.99,0-19.98,0-29.97,0-2.77,0-4.34,1.21-4.41,3.3-.07,2.19,1.58,3.53,4.44,3.6.33,0,.67,0,1,0,19.32,0,38.63,0,57.95,0,.91,0,1.86.02,2.72-.2,1.99-.51,2.96-1.91,2.58-3.91-.41-2.16-2-2.82-4.09-2.81-10.07.04-20.15.02-30.22.02Zm.09,54.02c9.66,0,19.32,0,28.98,0,.67,0,1.34.04,2-.03,2.02-.22,3.28-1.38,3.31-3.39.03-2.01-1.19-3.22-3.21-3.48-.74-.1-1.5-.04-2.25-.04-16.82,0-33.64,0-50.46,0-3.08,0-6.16-.05-9.24.03-2.13.06-3.43,1.23-3.58,3.39-.13,1.87,1.38,3.32,3.48,3.5.66.06,1.33.02,2,.02,9.66,0,19.32,0,28.98,0Zm-5.25,6.56c-7.41,0-14.82,0-22.23,0-1.25,0-2.51-.09-3.74.06-1.99.24-3.25,1.43-3.21,3.48.04,2.03,1.31,3.15,3.32,3.39.49.06,1,.03,1.5.03,16.15,0,32.31,0,48.46,0,.66,0,1.56.21,1.95-.14,1.03-.91,2.29-1.95,2.64-3.17.49-1.73-.77-2.99-2.47-3.47-.78-.22-1.65-.17-2.48-.17-7.91-.01-15.82,0-23.73,0Zm-.23,54.05c8.24,0,16.48.09,24.72-.09,1.34-.03,3.18-.86,3.88-1.92,1.58-2.4-.55-4.87-4.06-4.87-16.31-.02-32.63-.02-48.94,0-2.95,0-4.56,1.25-4.58,3.43-.02,2.2,1.57,3.44,4.52,3.45,8.16.01,16.31,0,24.47,0Zm.09-101.12c-8.33,0-16.65-.02-24.98,0-2.55,0-4.07,1.31-4.1,3.37-.03,2.03,1.51,3.41,3.99,3.56.33.02.67,0,1,0,16.07,0,32.14,0,48.2,0,3.21,0,4.77-1.16,4.81-3.45.03-2.36-1.45-3.48-4.7-3.48-8.08,0-16.15,0-24.23,0Zm-53.97,93.83c-1.66-1.56-3.13-3.02-4.69-4.37-1.61-1.39-3.39-1.49-4.9.08-1.53,1.59-1.35,3.38.16,4.88,2.36,2.35,4.78,4.63,7.25,6.86,1.41,1.27,3.23,1.45,4.52.08,5.07-5.4,10.03-10.89,14.91-16.46,1.18-1.34.81-3.03-.51-4.27-1.41-1.33-3-1.36-4.51-.15-.77.62-1.4,1.42-2.08,2.15-3.35,3.68-6.69,7.37-10.16,11.2Zm0-94.27c-1.59-1.49-3.08-2.93-4.62-4.32-1.59-1.43-3.28-1.58-4.91-.08-1.52,1.41-1.47,3.38.21,5.06,2.23,2.24,4.52,4.43,6.87,6.55,1.93,1.74,3.67,1.66,5.45-.27,4.63-5.02,9.2-10.1,13.77-15.18,1.34-1.49,1.53-3.14.23-4.75-1.4-1.72-3.8-1.55-5.61.43-3.77,4.11-7.5,8.25-11.39,12.54Zm0,47.13c-.96-.88-1.7-1.55-2.42-2.23-.73-.68-1.42-1.41-2.17-2.06-1.6-1.4-3.31-1.56-4.93-.1-1.53,1.38-1.48,3.41.19,5.08,2.29,2.3,4.65,4.53,7.07,6.7,1.7,1.52,3.55,1.43,5.09-.24,4.74-5.15,9.44-10.32,14.08-15.56,1.44-1.62,1.22-3.61-.25-4.89-1.55-1.36-3.5-1.12-5.25.77-3.78,4.1-7.51,8.24-11.41,12.54Z" style="fill: #00c2ff; stroke-width: 0px;"/>
  <path d="m74.71,49.3c-.77-10.29,5.85-17.61,15.64-17.62,30.74-.02,61.49,0,92.23,0,.73,0,1.46.07,2.44.13,0,4.52,0,8.91,0,13.3.02,14.32,9.3,23.62,23.59,23.64,4.4,0,8.79,0,13.36,0,.06,1.03.14,1.83.14,2.64,0,13.58.02,27.16-.03,40.74,0,1.1-.22,2.37-.78,3.28-3.49,5.57-7.11,11.07-10.69,16.59-.2.31-.46.59-1.11,1.42,0-1.52,0-2.39,0-3.26,0-12.83-.04-25.66.03-38.49.01-2.16-.62-3.78-2.16-5.31-11.65-11.56-23.26-23.16-34.82-34.82-1.59-1.61-3.28-2.27-5.53-2.27-29.74.05-59.49.03-89.23.03h-3.09Z" style="fill: #00c2ff; stroke-width: 0px;"/>
  <path d="m222.36,126.6c5.14,3.34,10.01,6.5,15.1,9.81-12.19,18.84-24.29,37.54-36.53,56.44-5.05-3.27-9.98-6.45-15.12-9.78,12.2-18.85,24.3-37.55,36.55-56.47Z" style="fill: #00c2ff; stroke-width: 0px;"/>
  <path d="m221.95,173.29c.09.87.16,1.25.16,1.62,0,10.82.07,21.64-.04,32.46-.08,7.21-5.47,13.4-12.43,14.35-.05-.79-.14-1.57-.14-2.35-.01-8.32-.05-16.64.04-24.97.01-1.24.4-2.64,1.05-3.69,3.25-5.23,6.64-10.36,9.99-15.52.34-.52.72-1.01,1.36-1.91Z" style="fill: #00c2ff; stroke-width: 0px;"/>
  <path d="m241.23,130.58c-5.07-3.29-9.94-6.44-15.04-9.74,1.02-1.63,1.95-3.16,2.92-4.66,2.02-3.15,4.09-6.26,6.08-9.43.69-1.09,1.4-1.6,2.61-.8,4.1,2.68,8.25,5.3,12.28,8.08.45.31.69,1.7.39,2.19-2.93,4.73-5.99,9.37-9.23,14.37Z" style="fill: #00c2ff; stroke-width: 0px;"/>
  <path d="m192.26,37.3c8.07,8.06,16.13,16.11,24.56,24.54-5.83-.34-11.54,1.09-16.88-1.85-4.1-2.26-6.99-5.68-7.58-10.29-.52-4.08-.11-8.27-.11-12.4Z" style="fill: #00c2ff; stroke-width: 0px;"/>
  <path d="m197.26,86.16c-17.09,2.09-27.13-2.98-24.08-24.8,7.99,8.22,15.97,16.45,24.08,24.8Z" style="fill: #00c2ff; stroke-width: 0px;"/>
  <path d="m177.69,211.45c1.35-7.39,2.71-14.78,4.16-22.67,5.3,3.42,10.2,6.59,15.52,10.02-6.54,4.51-12.77,8.8-19,13.1-.23-.15-.45-.3-.68-.45Z" style="fill: #00c2ff; stroke-width: 0px;"/>
</svg>