<svg width="66" height="56" viewBox="0 0 66 56" fill="none" xmlns="http://www.w3.org/2000/svg">
<g clip-path="url(#clip0_1_3)">
<path d="M0 30.8023H3.7146C3.7146 31.5653 4.4775 32.1012 5.5492 32.1012C6.49374 32.1012 7.1749 31.6652 7.1749 31.0839C7.1749 29.1763 0.208889 30.3481 0.208889 25.6701C0.208889 22.9268 2.52484 21.4735 5.36755 21.4735C8.47365 21.4735 10.6534 23.1994 10.6534 25.5429H6.96601C6.96601 24.8526 6.27577 24.3984 5.34031 24.3984C4.50475 24.3984 3.869 24.7799 3.869 25.3612C3.869 27.1961 10.8623 26.0697 10.8623 30.7024C10.8623 33.3002 8.7007 35.0534 5.5492 35.0534C2.39769 35.0534 0.00908215 33.2185 0.00908215 30.8023H0Z" fill="white"/>
<path d="M55.1468 30.8023H58.8614C58.8614 31.5653 59.6243 32.1012 60.696 32.1012C61.6406 32.1012 62.3217 31.6652 62.3217 31.0839C62.3217 29.1763 55.3557 30.3481 55.3557 25.6701C55.3557 22.9268 57.6717 21.4735 60.5144 21.4735C63.6205 21.4735 65.8002 23.1994 65.8002 25.5429H62.1128C62.1128 24.8526 61.4226 24.3984 60.4871 24.3984C59.6516 24.3984 59.0158 24.7799 59.0158 25.3612C59.0158 27.1961 66.0091 26.0697 66.0091 30.7024C66.0091 33.3002 63.8475 35.0534 60.696 35.0534C57.5445 35.0534 55.1559 33.2185 55.1559 30.8023H55.1468Z" fill="white"/>
<path d="M13.7867 30.6206V25.1523H11.8522V21.7732H12.9239C13.6323 21.7732 13.9956 21.419 13.9956 20.7014V18.3669H17.5013V21.7732H21.7518V25.1523H17.5013V30.2663C17.5013 30.9294 17.9554 31.3564 18.5912 31.3564C19.2996 31.3564 19.7355 30.8477 19.7355 30.012H23.0414C23.0414 32.8824 21.2068 34.7445 18.3641 34.7445C15.5214 34.7445 13.7867 33.0913 13.7867 30.6206Z" fill="white"/>
<path d="M23.8134 28.2589C23.8134 24.3893 26.8105 21.4644 30.8067 21.4644C34.8028 21.4644 37.7999 24.362 37.7999 28.3315C37.7999 28.6858 37.7727 29.1218 37.7 29.4488H27.7823C28.191 30.9204 29.3808 31.865 30.9338 31.865C32.1327 31.865 33.0954 31.3564 33.6312 30.6479H37.6001C36.6374 33.2639 34.0399 35.0443 30.8339 35.0443C26.8196 35.0443 23.8134 32.1194 23.8134 28.2589ZM27.8005 26.9872H33.8219C33.4405 25.5611 32.2689 24.6527 30.7976 24.6527C29.3263 24.6527 28.2001 25.5702 27.8005 26.9872Z" fill="white"/>
<path d="M39.9433 21.7732H43.6579V23.0722C44.6479 22.0548 45.992 21.4735 47.5723 21.4735C51.1598 21.4735 53.8299 24.3984 53.8299 28.268C53.8299 32.1376 51.1598 35.0534 47.5723 35.0534C45.992 35.0534 44.6479 34.472 43.6579 33.4547V39.5861H39.9433V21.7823V21.7732ZM50.0154 28.2589C50.0154 26.424 48.6713 25.0524 46.8367 25.0524C45.0021 25.0524 43.6579 26.424 43.6579 28.2589C43.6579 30.0938 45.0021 31.4654 46.8367 31.4654C48.6713 31.4654 50.0154 30.0938 50.0154 28.2589Z" fill="white"/>
<path d="M0.890053 51.9669V38.7413H4.33219V51.213C4.33219 51.9669 4.77721 52.3938 5.55828 52.3938H6.28485V55.7184H5.05876C2.29779 55.7184 0.890053 54.4467 0.890053 51.9669Z" fill="black"/>
<path d="M7.13857 49.7051C7.13857 46.1171 9.63616 43.4102 12.933 43.4102C14.3952 43.4102 15.6485 43.9552 16.5658 44.8999V43.7009H20.008V51.431C20.008 52.0396 20.3622 52.3938 20.9707 52.3938H21.2068V55.7184H20.2441C18.5912 55.7184 17.5104 55.1734 16.9655 54.0925C16.0028 55.2733 14.6041 56 12.933 56C9.63616 56 7.13857 53.284 7.13857 49.7051ZM16.5658 49.7051C16.5658 48.0065 15.3125 46.7348 13.6232 46.7348C11.9339 46.7348 10.6988 48.0065 10.6988 49.7051C10.6988 51.4037 11.9521 52.6754 13.6232 52.6754C15.2943 52.6754 16.5658 51.4037 16.5658 49.7051Z" fill="black"/>
<path d="M23.0142 38.7413H26.4563V44.8908C27.3736 43.9461 28.6269 43.4011 30.0892 43.4011C33.4132 43.4011 35.8836 46.1171 35.8836 49.696C35.8836 53.2749 33.4042 55.9909 30.0892 55.9909C28.6269 55.9909 27.3736 55.4459 26.4563 54.5012V55.7002H23.0142V38.7231V38.7413ZM32.3506 49.7051C32.3506 48.0065 31.0973 46.7348 29.3989 46.7348C27.7006 46.7348 26.4563 48.0065 26.4563 49.7051C26.4563 51.4037 27.7096 52.6754 29.3989 52.6754C31.0882 52.6754 32.3506 51.4037 32.3506 49.7051Z" fill="black"/>
<path d="M12.5334 3.16107H15.9755V4.34193C16.9201 3.37907 18.1461 2.87948 19.6265 2.87948C22.3875 2.87948 24.2221 4.69619 24.2221 7.45758V10.9002C24.2221 11.5088 24.5763 11.8631 25.1848 11.8631H25.4209V15.1877H24.4582C22.0333 15.1877 20.78 13.9886 20.78 11.6542V8.61119C20.78 7.14874 19.8627 6.20405 18.4731 6.20405C16.9927 6.20405 15.9755 7.16691 15.9755 8.65661V15.1877H12.5334V3.16107Z" fill="black"/>
<path d="M26.3837 9.17437C26.3837 5.58637 29.1628 2.87948 32.8683 2.87948C36.5738 2.87948 39.353 5.56821 39.353 9.24704C39.353 9.57404 39.3257 9.9828 39.2621 10.2826H30.071C30.4525 11.6542 31.5605 12.5262 32.9955 12.5262C34.1035 12.5262 35.0026 12.0539 35.4931 11.3908H39.1713C38.2722 13.8161 35.8745 15.4693 32.9046 15.4693C29.181 15.4693 26.4018 12.7533 26.4018 9.17437H26.3837ZM30.0801 7.99351H35.6656C35.3114 6.6764 34.2306 5.82254 32.8592 5.82254C31.4878 5.82254 30.4525 6.66731 30.0801 7.99351Z" fill="black"/>
<path d="M43.9576 9.14712L39.8071 3.16107H43.9758L46.2827 6.72182L48.5895 3.16107H52.7128L48.5623 9.14712L52.7855 15.1786H48.6168L46.21 11.5452L43.8486 15.1786H39.7253L43.9485 9.14712H43.9576Z" fill="black"/>
<path d="M55.4647 11.3635V6.29489H53.6755V3.16107H54.6655C55.3285 3.16107 55.6554 2.83406 55.6554 2.17097V0H58.9068V3.16107H62.8394V6.29489H58.9068V11.0365C58.9068 11.6542 59.3337 12.0539 59.924 12.0539C60.587 12.0539 60.9867 11.5815 60.9867 10.8003H64.0473C64.0473 13.4618 62.349 15.1877 59.7061 15.1877C57.0632 15.1877 55.4647 13.6526 55.4647 11.3726V11.3635Z" fill="black"/>
<path d="M43.4036 9.14712L39.7435 3.16107H44.3663L46.4007 6.72182L47.763 9.14712L46.3371 11.5543L44.2573 15.1877H39.6799L43.4036 9.15621V9.14712Z" fill="white"/>
<path d="M43.4853 49.6779L39.8252 43.6918H44.448L46.4825 47.2526L47.8448 49.6779L46.4189 52.085L44.3391 55.7184H39.7617L43.4853 49.6869V49.6779Z" fill="white"/>
</g>
<defs>
<clipPath id="clip0_1_3">
<rect width="66" height="56" fill="white"/>
</clipPath>
</defs>
</svg>
