<svg width="65" height="64" viewBox="0 0 65 64" fill="none" xmlns="http://www.w3.org/2000/svg">
<path d="M13.352 9.14307C11.0787 9.14307 8.89855 10.0461 7.29109 11.6536C5.68364 13.261 4.78058 15.4412 4.78058 17.7145V44.0002C4.78058 46.2735 5.68364 48.4537 7.29109 50.0611C8.89855 51.6686 11.0787 52.5716 13.352 52.5716H51.0571C53.3304 52.5716 55.5106 51.6686 57.1181 50.0611C58.7255 48.4537 59.6286 46.2735 59.6286 44.0002V17.7145C59.6286 15.4412 58.7255 13.261 57.1181 11.6536C55.5106 10.0461 53.3304 9.14307 51.0571 9.14307H13.352ZM8.20915 17.7145C8.20915 16.3505 8.75098 15.0424 9.71546 14.0779C10.6799 13.1135 11.988 12.5716 13.352 12.5716H51.0571C52.4211 12.5716 53.7292 13.1135 54.6937 14.0779C55.6582 15.0424 56.2 16.3505 56.2 17.7145V19.4951L32.2 31.7876L8.20915 19.4996V17.7145ZM8.20915 23.3534L31.4183 35.2391C31.6602 35.363 31.9282 35.4277 32.2 35.4277C32.4718 35.4277 32.7398 35.363 32.9817 35.2391L56.2 23.3488V44.0025C56.2 45.3665 55.6582 46.6746 54.6937 47.639C53.7292 48.6035 52.4211 49.1453 51.0571 49.1453H13.3543C11.9903 49.1453 10.6822 48.6035 9.71774 47.639C8.75327 46.6746 8.21144 45.3665 8.21144 44.0025V23.3556" fill="#00C3FF"/>
</svg>
