<svg width="48" height="48" viewBox="0 0 48 48" fill="none" xmlns="http://www.w3.org/2000/svg">
<path d="M5.32416 20.9388C4.26469 19.8754 3.23645 18.8433 2.21029 17.8133C1.9397 17.5417 1.66286 17.2784 1.40268 16.9985C0.686653 16.2275 0.688734 15.1327 1.39851 14.414C2.10829 13.6953 3.21355 13.6661 3.96913 14.4015C5.21384 15.6133 6.42942 16.8543 7.65124 18.089C7.78446 18.2228 7.87396 18.4003 7.9593 18.5215C9.63072 17.362 11.1897 16.2797 12.7925 15.1683C12.4886 14.6627 12.1659 14.1299 11.8454 13.595C11.298 12.6862 10.7401 11.7857 10.2094 10.8686C9.67026 9.93675 9.94918 8.84616 10.8317 8.32385C11.6976 7.81198 12.7612 8.06896 13.3212 8.97361C14.262 10.4946 15.1757 12.0344 16.1291 13.6138C18.3437 12.7301 20.6271 12.143 23.0666 12.0135C23.0666 11.301 23.0666 10.6283 23.0666 9.95556C23.0666 8.97987 23.0603 8.00628 23.0687 7.03059C23.0791 5.88359 23.8763 5.05207 24.9274 5.07087C25.964 5.08967 26.7133 5.90031 26.7175 7.03268C26.7258 8.59963 26.7216 10.1666 26.7175 11.7335C26.7175 11.9905 26.7216 12.1723 27.0547 12.26C28.6095 12.6695 30.1519 13.1187 31.7005 13.5512C31.7484 13.5637 31.7963 13.57 31.8754 13.5846C32.7808 12.0845 33.6925 10.5865 34.5917 9.08225C34.9247 8.52442 35.3743 8.15253 36.03 8.08776C36.7689 8.01464 37.3642 8.29042 37.7638 8.9172C38.176 9.56278 38.1614 10.2355 37.7722 10.8895C37.0062 12.1723 36.2298 13.4488 35.4596 14.7295C35.3701 14.8779 35.291 15.0283 35.2099 15.1745C36.7876 16.2693 38.3466 17.3515 40.0305 18.5173C40.2824 18.2269 40.5613 17.8718 40.8756 17.5521C41.8851 16.5221 42.903 15.5005 43.9291 14.4872C44.7388 13.687 45.8233 13.6556 46.5768 14.3952C47.3323 15.1369 47.3094 16.2693 46.4977 17.0904C45.2425 18.3627 43.9728 19.6226 42.5387 21.0621C42.7635 21.1958 43.0008 21.271 43.1423 21.4319C44.6327 23.1033 46.1272 24.7726 47.5821 26.4753C48.1399 27.1272 48.1275 27.873 47.6154 28.5395C43.7293 33.583 39.1751 37.8513 33.4344 40.7178C30.4953 42.1845 27.3919 43.0536 24.0886 43.0703C20.3419 43.0891 16.8763 42.0006 13.6126 40.231C8.33604 37.3666 4.0732 33.3323 0.426469 28.6001C-0.129283 27.8793 -0.158423 27.146 0.436876 26.4523C1.95218 24.6869 3.51537 22.9633 5.05773 21.2229C5.12642 21.1456 5.19927 21.0725 5.32832 20.9388H5.32416ZM23.9575 38.4238C29.9396 38.4572 34.8081 33.6081 34.8539 27.5722C34.8976 21.5697 30.0707 16.6725 24.0594 16.6245C18.0523 16.5764 13.1546 21.4528 13.1401 27.497C13.1234 33.514 17.9503 38.3904 23.9595 38.4238H23.9575ZM44.3329 27.5283C41.4251 24.0184 38.1989 20.9472 34.3315 18.5842C36.4546 21.1916 37.5973 24.1563 37.5994 27.5158C37.6036 30.8858 36.4525 33.8588 34.3294 36.4766C38.1989 34.1158 41.4168 31.0466 44.3329 27.5304V27.5283ZM13.521 36.3951C9.2623 30.4115 9.28936 24.4968 13.7 18.4881C9.78266 20.9555 6.54598 24.0246 3.65899 27.5262C6.53974 31.0007 9.73271 34.0468 13.521 36.3951Z" fill="#00C2FF"/>
<path d="M22.846 21.3901C25.0627 20.757 27.7769 21.8936 29.1757 23.9431C30.8617 26.4127 30.5911 29.745 28.5075 31.9158C26.4282 34.0802 23.0708 34.4563 20.5501 32.7995C17.9628 31.0989 17.2593 27.9671 17.9878 25.8778C18.7184 26.9245 19.6696 27.5388 20.9497 27.5158C21.8406 27.4991 22.6066 27.1627 23.2352 26.538C24.6652 25.1194 24.5132 23.1722 22.846 21.3922V21.3901Z" fill="#00C2FF"/>
</svg>
