<?xml version="1.0" encoding="UTF-8"?>
<svg id="Layer_1" data-name="Layer 1" xmlns="http://www.w3.org/2000/svg" viewBox="0 0 230.6 181.88">
  <path d="m25.6,75.95c-5.09-5.09-10.03-10.03-14.96-14.96-1.3-1.3-2.63-2.56-3.88-3.9-3.44-3.69-3.43-8.93-.02-12.37,3.41-3.44,8.72-3.58,12.35-.06,5.98,5.8,11.82,11.74,17.69,17.65.64.64,1.07,1.49,1.48,2.07,8.03-5.55,15.52-10.73,23.22-16.05-1.46-2.42-3.01-4.97-4.55-7.53-2.63-4.35-5.31-8.66-7.86-13.05-2.59-4.46-1.25-9.68,2.99-12.18,4.16-2.45,9.27-1.22,11.96,3.11,4.52,7.28,8.91,14.65,13.49,22.21,10.64-4.23,21.61-7.04,33.33-7.66,0-3.41,0-6.63,0-9.85,0-4.67-.03-9.33.01-14C110.9,3.89,114.73-.09,119.78,0c4.98.09,8.58,3.97,8.6,9.39.04,7.5.02,15,0,22.5,0,1.23.02,2.1,1.62,2.52,7.47,1.96,14.88,4.11,22.32,6.18.23.06.46.09.84.16,4.35-7.18,8.73-14.35,13.05-21.55,1.6-2.67,3.76-4.45,6.91-4.76,3.55-.35,6.41.97,8.33,3.97,1.98,3.09,1.91,6.31.04,9.44-3.68,6.14-7.41,12.25-11.11,18.38-.43.71-.81,1.43-1.2,2.13,7.58,5.24,15.07,10.42,23.16,16,1.21-1.39,2.55-3.09,4.06-4.62,4.85-4.93,9.74-9.82,14.67-14.67,3.89-3.83,9.1-3.98,12.72-.44,3.63,3.55,3.52,8.97-.38,12.9-6.03,6.09-12.13,12.12-19.02,19.01,1.08.64,2.22,1,2.9,1.77,7.16,8,14.34,15.99,21.33,24.14,2.68,3.12,2.62,6.69.16,9.88-18.67,24.14-40.55,44.57-68.13,58.29-14.12,7.02-29.03,11.18-44.9,11.26-18,.09-34.65-5.12-50.33-13.59-25.35-13.71-45.83-33.02-63.35-55.67-2.67-3.45-2.81-6.96.05-10.28,7.28-8.45,14.79-16.7,22.2-25.03.33-.37.68-.72,1.3-1.36Zm89.52,83.69c28.74.16,52.13-23.05,52.35-51.94.21-28.73-22.98-52.17-51.86-52.4-28.86-.23-52.39,23.11-52.46,52.04-.08,28.8,23.11,52.14,51.98,52.3Zm97.89-52.15c-13.97-16.8-29.47-31.5-48.05-42.81,10.2,12.48,15.69,26.67,15.7,42.75.02,16.13-5.51,30.36-15.71,42.89,18.59-11.3,34.05-25.99,48.06-42.82Zm-148.03,42.44c-20.46-28.64-20.33-56.95.86-85.71-18.82,11.81-34.37,26.5-48.24,43.26,13.84,16.63,29.18,31.21,47.38,42.45Z" style="fill: #00c2ff; stroke-width: 0px;"/>
  <path d="m109.78,78.11c10.65-3.03,23.69,2.41,30.41,12.22,8.1,11.82,6.8,27.77-3.21,38.16-9.99,10.36-26.12,12.16-38.23,4.23-12.43-8.14-15.81-23.13-12.31-33.13,3.51,5.01,8.08,7.95,14.23,7.84,4.28-.08,7.96-1.69,10.98-4.68,6.87-6.79,6.14-16.11-1.87-24.63Z" style="fill: #00c2ff; stroke-width: 0px;"/>
</svg>