<?xml version="1.0" encoding="UTF-8"?>
<svg id="Layer_1" data-name="Layer 1" xmlns="http://www.w3.org/2000/svg" viewBox="0 0 236.67 194.45">
  <path d="m66.68,0c-11.15.04-21.35,2.35-31.05,6.96-11.4,5.42-20.99,13.39-30.45,21.54-6.06,5.22-6.82,13.58-1.88,19.37,4.95,5.79,12.77,6.11,19.11.93,5.15-4.21,10.25-8.5,15.65-12.37,12.21-8.77,25.71-11.53,40.47-8.25,11.66,2.59,22.32,7.54,32.66,13.29,11.51,6.4,23.34,12.01,36.09,15.49,18.8,5.14,37.15,4.64,54.88-4.18,11.06-5.5,20.51-13.25,29.69-21.35,5.86-5.17,6.35-13.52,1.37-19.22-4.92-5.62-12.77-5.85-18.95-.75-5.19,4.29-10.38,8.61-15.85,12.52-10.72,7.68-22.67,10.82-35.86,8.89-8.89-1.31-17.29-4.17-25.31-8.08-9.71-4.73-19.15-10.01-28.93-14.58C95.04,4.01,81.07.17,66.68,0Zm103.77,194.45c10.12-.06,19.79-2.1,29.03-6.26,12.53-5.65,23.06-14.19,33.1-23.33,5.39-4.9,5.35-13.38.45-18.69-4.85-5.26-12.44-5.64-18.2-1-5.37,4.33-10.64,8.82-16.23,12.84-12.2,8.77-25.72,11.52-40.48,8.23-11.24-2.5-21.58-7.16-31.56-12.7-12.53-6.96-25.38-13.11-39.36-16.66-22.24-5.64-43.12-2.73-62.16,10.33-6.91,4.74-13.4,10.12-19.84,15.5-6.26,5.23-6.84,13.7-1.72,19.53,4.98,5.67,12.77,5.79,19.15.55,5.59-4.58,11.19-9.19,17.12-13.31,9.01-6.26,19.13-9.13,30.18-8.36,9.08.63,17.71,3.08,25.87,6.93,9.69,4.57,19.06,9.79,28.71,14.45,14.51,7,29.64,11.77,45.95,11.96Zm0-67.13c10.41.1,20.28-2.17,29.72-6.52,12.25-5.65,22.51-14.11,32.43-23,3.21-2.88,4.45-6.82,3.88-11.11-.68-5.18-3.43-8.98-8.34-10.93-4.96-1.97-9.42-.82-13.49,2.49-5.16,4.2-10.25,8.5-15.62,12.42-12.14,8.85-25.62,11.78-40.41,8.62-11.34-2.43-21.77-7.1-31.83-12.69-12.46-6.92-25.2-13.14-39.1-16.64-16.22-4.09-32.26-4.11-47.98,2.3-13.8,5.63-25.15,14.86-35.95,24.79-3.82,3.52-4.59,8.38-2.97,13.39,2.87,8.87,13.27,12,20.65,6.22,5.5-4.31,10.78-8.91,16.42-13,10.2-7.4,21.59-10.85,34.29-9.41,8.43.95,16.49,3.31,24.09,6.93,9.22,4.39,18.16,9.38,27.35,13.84,14.79,7.17,30.18,12.25,46.85,12.32Z" style="fill: #00c2ff; stroke-width: 0px;"/>
  <path d="m66.68,0c14.39.17,28.36,4.01,41.66,10.23,9.78,4.57,19.22,9.85,28.93,14.58,8.02,3.91,16.42,6.77,25.31,8.08,13.19,1.94,25.13-1.21,35.86-8.89,5.47-3.92,10.66-8.23,15.85-12.52,6.18-5.11,14.03-4.87,18.95.75,4.98,5.7,4.49,14.05-1.37,19.22-9.18,8.09-18.63,15.84-29.69,21.35-17.73,8.83-36.08,9.32-54.88,4.18-12.76-3.49-24.59-9.09-36.09-15.49-10.34-5.75-21-10.7-32.66-13.29-14.76-3.28-28.27-.53-40.47,8.25-5.39,3.88-10.5,8.16-15.65,12.37-6.34,5.19-14.17,4.86-19.11-.93-4.95-5.79-4.18-14.15,1.88-19.37C14.64,20.36,24.23,12.38,35.63,6.96,45.33,2.35,55.53.04,66.68,0Z" style="fill: #00c2ff; stroke-width: 0px;"/>
  <path d="m170.46,194.45c-16.3-.19-31.44-4.96-45.95-11.96-9.65-4.65-19.03-9.88-28.71-14.45-8.15-3.85-16.79-6.3-25.87-6.93-11.05-.76-21.16,2.1-30.18,8.36-5.93,4.12-11.53,8.73-17.12,13.31-6.38,5.24-14.17,5.12-19.15-.55-5.12-5.82-4.54-14.3,1.72-19.53,6.44-5.38,12.93-10.76,19.84-15.5,19.04-13.06,39.92-15.97,62.16-10.33,13.98,3.54,26.83,9.69,39.36,16.66,9.98,5.54,20.32,10.2,31.56,12.7,14.76,3.29,28.27.54,40.48-8.23,5.6-4.02,10.86-8.51,16.23-12.84,5.76-4.65,13.35-4.26,18.2,1,4.9,5.31,4.94,13.79-.45,18.69-10.04,9.13-20.57,17.67-33.1,23.33-9.24,4.17-18.91,6.21-29.03,6.27Z" style="fill: #00c2ff; stroke-width: 0px;"/>
  <path d="m170.45,127.32c-16.68-.07-32.06-5.15-46.85-12.32-9.19-4.46-18.13-9.45-27.35-13.84-7.6-3.62-15.66-5.98-24.09-6.93-12.69-1.43-24.09,2.02-34.29,9.41-5.65,4.1-10.93,8.7-16.42,13-7.38,5.78-17.77,2.65-20.65-6.22-1.62-5.01-.85-9.88,2.97-13.39,10.79-9.94,22.15-19.16,35.95-24.79,15.72-6.41,31.76-6.39,47.98-2.3,13.9,3.51,26.64,9.72,39.1,16.64,10.06,5.59,20.49,10.26,31.83,12.69,14.79,3.16,28.26.22,40.41-8.62,5.37-3.91,10.46-8.22,15.62-12.42,4.07-3.31,8.53-4.45,13.49-2.49,4.91,1.95,7.67,5.74,8.34,10.93.56,4.3-.67,8.24-3.88,11.11-9.93,8.89-20.19,17.36-32.43,23-9.43,4.35-19.31,6.62-29.72,6.52Z" style="fill: #00c2ff; stroke-width: 0px;"/>
</svg>