<svg width="48" height="48" viewBox="0 0 48 48" fill="none" xmlns="http://www.w3.org/2000/svg">
<g clip-path="url(#clip0_13_1511)">
<path d="M36.6309 21.3346H25.3466C25.3474 21.316 25.3494 18.2391 25.3494 18.2391C26.1934 18.4573 27.0212 18.5668 27.8181 18.5668C29.4993 18.5668 31.0427 18.083 32.3088 17.1235C34.5926 15.3929 35.63 12.3755 35.1552 8.84511C35.0895 8.35699 34.7727 7.93896 34.3205 7.74379C31.0503 6.33183 27.8646 6.51466 25.5808 8.24537C25.5103 8.2988 25.4416 8.35419 25.3735 8.41014C25.4583 5.44973 24.4146 2.95526 22.4191 1.44319C20.1355 -0.287433 16.95 -0.470254 13.6795 0.941604C13.2273 1.13687 12.9105 1.55491 12.8448 2.04293C12.37 5.57342 13.4074 8.59071 15.6912 10.3213C16.9573 11.2809 18.5005 11.7646 20.1819 11.7646C20.9446 11.7646 21.7359 11.6649 22.5426 11.465C22.5426 11.465 22.5446 21.316 22.5454 21.3346H11.3689C9.04738 21.3346 7.15863 23.2233 7.15863 25.5449C7.15863 27.6937 8.77707 29.4705 10.8587 29.7232L14.7895 46.9094C14.9355 47.5474 15.5031 47.9999 16.1577 47.9999H31.8954C32.5517 47.9999 33.1203 47.5452 33.2645 46.905L37.1361 29.7239C39.2203 29.4734 40.8413 27.6955 40.8413 25.5449C40.8412 23.2232 38.9525 21.3346 36.6309 21.3346ZM27.276 10.4824C28.5703 9.50164 30.4247 9.34651 32.449 10.0288C32.5582 12.162 31.9078 13.9055 30.6134 14.8863C29.3191 15.8673 27.4646 16.0219 25.4405 15.3399C25.3312 13.2068 25.9816 11.4634 27.276 10.4824ZM17.3864 8.08426C16.0921 7.10344 15.4416 5.35991 15.5508 3.22668C17.5749 2.54461 19.4294 2.69927 20.7238 3.68027C22.0181 4.66109 22.6687 6.40472 22.5594 8.53785C20.5353 9.21992 18.6808 9.06508 17.3864 8.08426ZM30.773 45.193H17.2764L13.7455 29.7552H34.2517L30.773 45.193ZM36.6309 26.9483H11.369C10.5952 26.9483 9.9656 26.3188 9.9656 25.5449C9.9656 24.771 10.5952 24.1415 11.369 24.1415H36.6309C37.4048 24.1415 38.0344 24.771 38.0344 25.5449C38.0344 26.3188 37.4048 26.9483 36.6309 26.9483Z" fill="#00C3FF"/>
</g>
<defs>
<clipPath id="clip0_13_1511">
<rect width="48" height="48" fill="white"/>
</clipPath>
</defs>
</svg>
