<?xml version="1.0" encoding="UTF-8"?>
<svg id="Layer_1" data-name="Layer 1" xmlns="http://www.w3.org/2000/svg" viewBox="0 0 213.1 213.13">
  <path d="m106.61,0C47.68-.04.15,47.38,0,106.37c-.15,58.98,47.46,106.71,106.49,106.76,58.92.05,106.46-47.38,106.61-106.38C213.25,47.75,165.66.04,106.61,0Zm54.85,110.15c-28.79,18.47-57.6,36.92-86.34,55.47-1.82,1.17-3.02.8-4.7.02-1.77-.81-1.81-2.07-1.8-3.64.03-18.49.02-36.99.02-55.48,0-9.25,0-18.49,0-27.74,0-9.25,0-18.49-.02-27.74,0-1.6.12-2.81,1.87-3.6,1.6-.72,2.73-1.16,4.48-.03,28.82,18.59,57.7,37.07,86.56,55.59,2.82,1.81,2.79,5.31-.06,7.14Z" style="fill: #00c2ff; stroke-width: 0px;"/>
</svg>