<?xml version="1.0" encoding="UTF-8"?>
<svg id="Layer_1" data-name="Layer 1" xmlns="http://www.w3.org/2000/svg" viewBox="0 0 197.44 224.99">
  <path d="m29.28,205.05c-1.41-10.09-.65-19.65,2.11-29.04,4.34-14.77,12.61-27.26,22.74-38.63,7.45-8.37,15.78-15.78,24.62-22.63.85-.66,1.69-1.33,2.81-2.22-.88-.71-1.61-1.33-2.37-1.91-14.34-11.04-27.45-23.3-37.24-38.7-9.1-14.31-14.54-29.71-13.23-46.98.12-1.56.32-3.12.51-4.98-5.96,0-11.77.02-17.58-.01-1.24,0-2.51-.02-3.72-.28C2.85,18.57-.4,14.13.06,9.06.51,4.03,4.59.2,9.71,0c.42-.02.83,0,1.25,0,58.5,0,116.99,0,175.49,0,5.62,0,9.78,3.03,10.76,7.8,1.31,6.36-3.27,12.03-9.91,12.13-5.42.08-10.83.02-16.25.02-.9,0-1.79,0-2.85,0,.19,1.86.4,3.41.5,4.97,1.22,18.93-5.19,35.49-15.83,50.7-9.61,13.72-21.71,24.99-34.87,35.2-.64.49-1.25,1.02-2.05,1.68,3.02,2.41,5.9,4.63,8.7,6.95,14.15,11.74,26.74,24.83,35.3,41.33,6.41,12.35,9.92,25.39,8.76,39.44-.12,1.49-.32,2.97-.52,4.82,1,0,1.88,0,2.77,0,5.42,0,10.83-.04,16.25.01,5.96.06,10.26,4.31,10.23,9.99-.03,5.62-4.43,9.92-10.34,9.93-58.91.02-117.82.02-176.74,0-5.91,0-10.33-4.29-10.36-9.9-.03-5.61,4.38-9.97,10.25-10.02,6.23-.06,12.47-.01,19.03-.01Zm89.59-120.78c12.16-11.55,22.84-23.93,27.86-40.25,2.16-7.03,2.84-14.16,1.56-21.45-.31-1.77-.88-2.49-2.85-2.48-31.14.07-62.29.07-93.44,0-1.99,0-2.53.74-2.81,2.5-1.2,7.72-.59,15.26,1.89,22.66,5.1,15.19,14.89,27.16,26.26,38.01.44.42,1.7.47,2.27.15,2.17-1.22,4.24-2.63,6.31-4.02,8.22-5.47,16.47-5.53,24.79-.23,2.66,1.69,5.33,3.35,8.14,5.11Zm-67.16,93.03c7.1-3.83,13.62-7.3,20.09-10.85,7.8-4.27,16.11-6.65,25-6.93,10.67-.33,20.54,2.45,29.81,7.68,6.05,3.42,12.19,6.66,18.29,9.99-.47-2.36-1.25-4.43-2.25-6.38-9.94-19.29-25.83-32.97-42.98-45.46-.45-.33-1.62-.2-2.13.17-12.98,9.3-25.04,19.6-34.8,32.35-4.41,5.76-8.19,11.9-11.04,19.42Z" style="fill: #00c2ff; stroke-width: 0px;"/>
</svg>