<svg width="48" height="48" viewBox="0 0 48 48" fill="none" xmlns="http://www.w3.org/2000/svg">
<path d="M5.19046 40.4559C4.94051 38.6621 5.07523 36.9625 5.56449 35.2931C6.33384 32.6672 7.79985 30.4467 9.59559 28.4254C10.9162 26.9373 12.3929 25.6199 13.9599 24.4021C14.1106 24.2848 14.2595 24.1657 14.4581 24.0075C14.3021 23.8812 14.1727 23.771 14.0379 23.6679C11.4959 21.7052 9.17191 19.5256 7.43645 16.7877C5.82331 14.2436 4.85896 11.5058 5.09119 8.43548C5.11246 8.15814 5.14791 7.8808 5.18159 7.55012C4.12507 7.55012 3.09514 7.55368 2.06521 7.54834C1.84539 7.54834 1.62026 7.54479 1.40577 7.49856C0.505243 7.303 -0.0708805 6.51365 0.0106631 5.61229C0.090434 4.71804 0.813691 4.03714 1.72131 4.00158C1.79576 3.99802 1.86844 4.00158 1.94289 4.00158C12.3131 4.00158 22.6816 4.00158 33.0518 4.00158C34.048 4.00158 34.7855 4.54026 34.9592 5.38828C35.1914 6.51898 34.3795 7.52701 33.2025 7.54479C32.2417 7.55901 31.2826 7.54834 30.3219 7.54834C30.1623 7.54834 30.0045 7.54834 29.8166 7.54834C29.8503 7.87902 29.8875 8.15458 29.9053 8.43192C30.1215 11.7973 28.9852 14.7414 27.0991 17.4455C25.3955 19.8847 23.2506 21.8883 20.9177 23.7034C20.8043 23.7906 20.6962 23.8848 20.5543 24.0021C21.0897 24.4306 21.6002 24.8253 22.0966 25.2377C24.6049 27.3249 26.8367 29.6521 28.3542 32.5855C29.4905 34.7811 30.1127 37.0994 29.907 39.5972C29.8858 39.8621 29.8503 40.1252 29.8149 40.4541C29.9921 40.4541 30.1481 40.4541 30.3059 40.4541C31.2667 40.4541 32.2257 40.447 33.1865 40.4559C34.243 40.4666 35.0053 41.2221 35 42.2319C34.9947 43.2311 34.2147 43.9956 33.167 43.9973C22.7241 44.0009 12.2812 44.0009 1.83653 43.9973C0.788873 43.9973 0.00534503 43.2346 2.697e-05 42.2373C-0.00529109 41.2399 0.776464 40.4648 1.81703 40.4559C2.92142 40.4452 4.02757 40.4541 5.19046 40.4541V40.4559ZM21.072 18.9833C23.2276 16.9299 25.1208 14.729 26.0107 11.8276C26.3936 10.5778 26.5141 9.31017 26.2872 8.01413C26.2323 7.69946 26.1312 7.57145 25.782 7.57323C20.2618 7.58568 14.7399 7.58568 9.218 7.57323C8.86524 7.57323 8.76951 7.70479 8.71988 8.01769C8.50716 9.39017 8.61529 10.7307 9.05492 12.0462C9.95899 14.7468 11.6944 16.8748 13.71 18.8038C13.788 18.8784 14.0114 18.8873 14.1124 18.8304C14.4971 18.6135 14.864 18.3629 15.231 18.1157C16.6881 17.1433 18.1506 17.1326 19.6255 18.0749C20.097 18.3753 20.5703 18.6704 21.0684 18.9833H21.072ZM9.1666 35.5224C10.4252 34.8415 11.581 34.2246 12.7279 33.5935C14.1106 32.8344 15.5837 32.4112 17.1596 32.3615C19.0511 32.3028 20.8007 32.797 22.444 33.7268C23.5165 34.3348 24.6049 34.9109 25.6863 35.5029C25.603 35.0833 25.4647 34.7153 25.2874 34.3686C23.5254 30.9392 20.7086 28.5071 17.6684 26.2866C17.5886 26.228 17.3812 26.2511 17.2908 26.3169C14.9899 27.9702 12.852 29.8014 11.1219 32.0681C10.3401 33.0921 9.67004 34.1837 9.16482 35.5207L9.1666 35.5224Z" fill="#00C2FF"/>
</svg>
