<svg width="65" height="64" viewBox="0 0 65 64" fill="none" xmlns="http://www.w3.org/2000/svg">
<path d="M20.8 36H36.8V40H20.8V36ZM20.8 26H44.8V30H20.8V26ZM20.8 46H30.8V50H20.8V46Z" fill="#00C3FF"/>
<path d="M50.8 10H44.8V8C44.8 6.93913 44.3786 5.92172 43.6284 5.17157C42.8783 4.42143 41.8609 4 40.8 4H24.8C23.7391 4 22.7217 4.42143 21.9716 5.17157C21.2214 5.92172 20.8 6.93913 20.8 8V10H14.8C13.7391 10 12.7217 10.4214 11.9716 11.1716C11.2214 11.9217 10.8 12.9391 10.8 14V56C10.8 57.0609 11.2214 58.0783 11.9716 58.8284C12.7217 59.5786 13.7391 60 14.8 60H50.8C51.8609 60 52.8783 59.5786 53.6284 58.8284C54.3786 58.0783 54.8 57.0609 54.8 56V14C54.8 12.9391 54.3786 11.9217 53.6284 11.1716C52.8783 10.4214 51.8609 10 50.8 10ZM24.8 8H40.8V16H24.8V8ZM50.8 56H14.8V14H20.8V20H44.8V14H50.8V56Z" fill="#00C3FF"/>
</svg>
