<svg width="19" height="18" viewBox="0 0 19 18" fill="none" xmlns="http://www.w3.org/2000/svg">
<path d="M9.8966 3.72168L13.9057 1.17625C14.4227 0.850112 15.0591 1.33534 14.9079 1.93192L13.7466 6.4978C13.7152 6.62436 13.7202 6.75722 13.761 6.88106C13.8018 7.00491 13.8768 7.1147 13.9773 7.1978L17.5727 10.1966C18.042 10.5864 17.8034 11.3739 17.1909 11.4137L12.4977 11.716C12.3697 11.7234 12.2466 11.768 12.1434 11.8443C12.0403 11.9206 11.9616 12.0252 11.917 12.1455L10.1671 16.5523C10.1207 16.6796 10.0363 16.7896 9.92535 16.8674C9.81435 16.9451 9.68212 16.9868 9.54661 16.9868C9.41109 16.9868 9.27886 16.9451 9.16787 16.8674C9.05687 16.7896 8.97248 16.6796 8.92616 16.5523L7.17617 12.1455C7.13157 12.0252 7.0529 11.9206 6.94978 11.8443C6.84665 11.768 6.72354 11.7234 6.59549 11.716L1.90234 11.4137C1.28984 11.3739 1.05121 10.5864 1.52052 10.1966L5.11595 7.1978C5.21645 7.1147 5.29142 7.00491 5.33223 6.88106C5.37304 6.75722 5.37804 6.62436 5.34663 6.4978L4.27278 2.26601C4.08982 1.55011 4.85346 0.96943 5.46595 1.3592L9.19661 3.72168C9.30122 3.78821 9.42263 3.82354 9.54661 3.82354C9.67058 3.82354 9.79199 3.78821 9.8966 3.72168V3.72168Z" fill="#FFCC00" stroke="#FFCC00" stroke-width="1.37888" stroke-linecap="round" stroke-linejoin="round"/>
</svg>
