<svg width="19" height="18" viewBox="0 0 19 18" fill="none" xmlns="http://www.w3.org/2000/svg">
<path d="M9.44317 3.72168L13.4522 1.17625C13.9693 0.850113 14.6056 1.33534 14.4545 1.93192L13.2931 6.4978C13.2617 6.62436 13.2667 6.75722 13.3076 6.88106C13.3484 7.00491 13.4233 7.1147 13.5238 7.1978L17.1193 10.1966C17.5886 10.5864 17.3499 11.3739 16.7374 11.4137L12.0443 11.716C11.9162 11.7234 11.7931 11.768 11.69 11.8443C11.5869 11.9206 11.5082 12.0252 11.4636 12.1455L9.71363 16.5523C9.6673 16.6796 9.58292 16.7896 9.47192 16.8674C9.36092 16.9451 9.22869 16.9868 9.09318 16.9868C8.95766 16.9868 8.82543 16.9451 8.71444 16.8674C8.60344 16.7896 8.51905 16.6796 8.47273 16.5523L6.72274 12.1455C6.67814 12.0252 6.59947 11.9206 6.49635 11.8443C6.39322 11.768 6.27011 11.7234 6.14206 11.716L1.44891 11.4137C0.836412 11.3739 0.597777 10.5864 1.06709 10.1966L4.66252 7.1978C4.76302 7.1147 4.83799 7.00491 4.8788 6.88106C4.91961 6.75722 4.92461 6.62436 4.8932 6.4978L3.81935 2.26601C3.63639 1.55011 4.40003 0.969429 5.01252 1.3592L8.74318 3.72168C8.84779 3.78821 8.9692 3.82354 9.09318 3.82354C9.21715 3.82354 9.33856 3.78821 9.44317 3.72168Z" fill="white" stroke="#FFCC00" stroke-width="1.37888" stroke-linecap="round" stroke-linejoin="round"/>
<mask id="mask0_12_6735" style="mask-type:alpha" maskUnits="userSpaceOnUse" x="0" y="1" width="18" height="17">
<path d="M9.57361 4.08985L13.5827 1.54441C14.0997 1.21828 14.7361 1.7035 14.5849 2.30009L13.4236 6.86596C13.3922 6.99252 13.3972 7.12538 13.438 7.24923C13.4788 7.37307 13.5538 7.48287 13.6543 7.56596L17.2497 10.5648C17.719 10.9546 17.4804 11.7421 16.8679 11.7818L12.1747 12.0841C12.0467 12.0916 11.9236 12.1362 11.8204 12.2124C11.7173 12.2887 11.6386 12.3934 11.594 12.5137L9.84406 16.9204C9.79774 17.0478 9.71335 17.1578 9.60235 17.2355C9.49135 17.3133 9.35912 17.355 9.22361 17.355C9.0881 17.355 8.95587 17.3133 8.84487 17.2355C8.73387 17.1578 8.64948 17.0478 8.60316 16.9204L6.85317 12.5137C6.80857 12.3934 6.7299 12.2887 6.62678 12.2124C6.52365 12.1362 6.40055 12.0916 6.27249 12.0841L1.57934 11.7818C0.966844 11.7421 0.72821 10.9546 1.19752 10.5648L4.79296 7.56596C4.89345 7.48287 4.96842 7.37307 5.00923 7.24923C5.05005 7.12538 5.05504 6.99252 5.02364 6.86596L3.94978 2.63417C3.76683 1.91827 4.53046 1.33759 5.14295 1.72736L8.87361 4.08985C8.97823 4.15637 9.09963 4.1917 9.22361 4.1917C9.34758 4.1917 9.46899 4.15637 9.57361 4.08985Z" fill="white"/>
</mask>
<g mask="url(#mask0_12_6735)">
<path d="M9.30947 -5.55875L9.1875 19.8158L-6.65136 8.28873L9.30947 -5.55875Z" fill="#FFCC00"/>
</g>
</svg>
