<svg width="24" height="24" viewBox="0 0 24 24" fill="none" xmlns="http://www.w3.org/2000/svg">
<path d="M19.4453 3.00195C19.186 3.02095 18.9314 3.08224 18.6916 3.18341H18.6883C18.4581 3.27536 17.3634 3.7392 15.6992 4.44228L9.73544 6.97222C5.45611 8.78687 1.24949 10.5739 1.24949 10.5739L1.29958 10.5543C1.29958 10.5543 1.00955 10.6504 0.706595 10.8595C0.519432 10.9795 0.358378 11.1364 0.233178 11.3209C0.0845286 11.5406 -0.0350373 11.8767 0.00939597 12.2241C0.082105 12.8117 0.460192 13.164 0.731639 13.3585C1.00632 13.5554 1.26807 13.6474 1.26807 13.6474H1.27453L5.2194 14.986C5.39633 15.5581 6.42152 18.953 6.66792 19.735C6.81334 20.2021 6.95472 20.4943 7.13165 20.7172C7.21728 20.8311 7.31746 20.9264 7.43783 21.0028C7.50041 21.0395 7.56713 21.0685 7.63657 21.0891L7.59618 21.0793C7.60829 21.0826 7.61799 21.0924 7.62688 21.0956C7.65919 21.1046 7.681 21.1078 7.72221 21.1143C8.3467 21.3047 8.84839 20.9141 8.84839 20.9141L8.87666 20.8914L11.2058 18.7553L15.1094 21.7718L15.1983 21.8101C16.0118 22.1698 16.8359 21.9696 17.2713 21.6164C17.71 21.2608 17.8805 20.8059 17.8805 20.8059L17.9087 20.7327L20.9254 5.16651C21.011 4.78242 21.0328 4.42275 20.9383 4.07365C20.8408 3.72034 20.6158 3.41647 20.3073 3.22166C20.0483 3.06307 19.748 2.98652 19.4453 3.00195ZM19.3637 4.67013C19.3605 4.72139 19.3702 4.7157 19.3476 4.81416V4.82311L16.3592 20.2273C16.3463 20.2493 16.3245 20.2973 16.2647 20.3453C16.2017 20.3958 16.1516 20.4275 15.889 20.3226L11.1145 16.6355L8.23036 19.2834L8.83627 15.3855L16.6371 8.06182C16.9587 7.76074 16.8512 7.69727 16.8512 7.69727C16.8738 7.32782 16.3657 7.58904 16.3657 7.58904L6.52897 13.7271L6.52574 13.7109L1.81096 12.1118V12.1086L1.79885 12.1061C1.80711 12.1034 1.8152 12.1001 1.82308 12.0964L1.84893 12.0834L1.87398 12.0744C1.87398 12.0744 6.08383 10.2874 10.3632 8.47277C12.5057 7.56381 14.6643 6.64835 16.3245 5.94201C17.3091 5.52456 18.2947 5.10955 19.2813 4.69698C19.3476 4.67094 19.3161 4.67013 19.3637 4.67013Z" fill="#FFCC00"/>
</svg>
