<svg width="33" height="34" viewBox="0 0 33 34" fill="none" xmlns="http://www.w3.org/2000/svg">
<path d="M28.1462 3.25019H4.85375C4.59192 3.24656 4.33194 3.29453 4.08865 3.39138C3.84536 3.48823 3.62354 3.63206 3.43584 3.81465C3.24815 3.99723 3.09826 4.21501 2.99474 4.45553C2.89121 4.69605 2.83608 4.95461 2.8325 5.21644V28.7839C2.83608 29.0458 2.89121 29.3043 2.99474 29.5449C3.09826 29.7854 3.24815 30.0031 3.43584 30.1857C3.62354 30.3683 3.84536 30.5122 4.08865 30.609C4.33194 30.7059 4.59192 30.7538 4.85375 30.7502H28.1462C28.4081 30.7538 28.6681 30.7059 28.9113 30.609C29.1546 30.5122 29.3765 30.3683 29.5642 30.1857C29.7518 30.0031 29.9017 29.7854 30.0053 29.5449C30.1088 29.3043 30.1639 29.0458 30.1675 28.7839V5.21644C30.1639 4.95461 30.1088 4.69605 30.0053 4.45553C29.9017 4.21501 29.7518 3.99723 29.5642 3.81465C29.3765 3.63206 29.1546 3.48823 28.9113 3.39138C28.6681 3.29453 28.4081 3.24656 28.1462 3.25019ZM11.1237 26.2677H6.99875V13.8927H11.1237V26.2677ZM9.06125 12.1602C8.49236 12.1602 7.94677 11.9342 7.5445 11.5319C7.14224 11.1297 6.91625 10.5841 6.91625 10.0152C6.91625 9.4463 7.14224 8.90071 7.5445 8.49845C7.94677 8.09618 8.49236 7.87019 9.06125 7.87019C9.36333 7.83593 9.66924 7.86587 9.95895 7.95803C10.2487 8.0502 10.5156 8.20252 10.7424 8.40501C10.9692 8.60751 11.1506 8.85563 11.2748 9.1331C11.399 9.41058 11.4633 9.71117 11.4633 10.0152C11.4633 10.3192 11.399 10.6198 11.2748 10.8973C11.1506 11.1748 10.9692 11.4229 10.7424 11.6254C10.5156 11.8279 10.2487 11.9802 9.95895 12.0724C9.66924 12.1645 9.36333 12.1945 9.06125 12.1602ZM26.0012 26.2677H21.8762V19.6264C21.8762 17.9627 21.285 16.8764 19.7862 16.8764C19.3224 16.8798 18.8708 17.0253 18.4921 17.2933C18.1135 17.5613 17.8262 17.9389 17.6687 18.3752C17.5611 18.6984 17.5145 19.0387 17.5312 19.3789V26.2539H13.4062V13.8789H17.5312V15.6252C17.906 14.975 18.451 14.4393 19.1076 14.0758C19.7642 13.7124 20.5075 13.535 21.2575 13.5627C24.0075 13.5627 26.0012 15.3364 26.0012 19.1452V26.2677Z" fill="#FFCC00"/>
</svg>
