<svg width="36" height="36" viewBox="0 0 36 36" fill="none" xmlns="http://www.w3.org/2000/svg">
<path d="M21.9683 15.0469L15.2183 10.5469C15.0911 10.462 14.9433 10.4133 14.7907 10.406C14.638 10.3986 14.4862 10.4329 14.3515 10.5051C14.2167 10.5773 14.1041 10.6847 14.0257 10.8159C13.9473 10.9471 13.906 11.0971 13.9062 11.25V20.25C13.906 20.4029 13.9473 20.5529 14.0257 20.6841C14.1041 20.8153 14.2167 20.9227 14.3515 20.9949C14.4862 21.0671 14.638 21.1014 14.7907 21.094C14.9433 21.0867 15.0911 21.038 15.2183 20.9531L21.9683 16.4531C22.0843 16.3762 22.1795 16.2717 22.2453 16.149C22.3112 16.0263 22.3456 15.8892 22.3456 15.75C22.3456 15.6108 22.3112 15.4737 22.2453 15.351C22.1795 15.2283 22.0843 15.1238 21.9683 15.0469ZM15.5938 18.6736V12.8264L19.9784 15.75L15.5938 18.6736ZM29.375 5.90625H4.625C4.10286 5.90625 3.6021 6.11367 3.23288 6.48288C2.86367 6.8521 2.65625 7.35286 2.65625 7.875V23.625C2.65625 24.1471 2.86367 24.6479 3.23288 25.0171C3.6021 25.3863 4.10286 25.5938 4.625 25.5938H29.375C29.8971 25.5938 30.3979 25.3863 30.7671 25.0171C31.1363 24.6479 31.3438 24.1471 31.3438 23.625V7.875C31.3438 7.35286 31.1363 6.8521 30.7671 6.48288C30.3979 6.11367 29.8971 5.90625 29.375 5.90625ZM29.6562 23.625C29.6562 23.6996 29.6266 23.7711 29.5739 23.8239C29.5211 23.8766 29.4496 23.9062 29.375 23.9062H4.625C4.55041 23.9062 4.47887 23.8766 4.42613 23.8239C4.37338 23.7711 4.34375 23.6996 4.34375 23.625V7.875C4.34375 7.80041 4.37338 7.72887 4.42613 7.67613C4.47887 7.62338 4.55041 7.59375 4.625 7.59375H29.375C29.4496 7.59375 29.5211 7.62338 29.5739 7.67613C29.6266 7.72887 29.6562 7.80041 29.6562 7.875V23.625ZM31.3438 29.25C31.3438 29.4738 31.2549 29.6884 31.0966 29.8466C30.9384 30.0049 30.7238 30.0938 30.5 30.0938H3.5C3.27622 30.0938 3.06161 30.0049 2.90338 29.8466C2.74514 29.6884 2.65625 29.4738 2.65625 29.25C2.65625 29.0262 2.74514 28.8116 2.90338 28.6534C3.06161 28.4951 3.27622 28.4062 3.5 28.4062H30.5C30.7238 28.4062 30.9384 28.4951 31.0966 28.6534C31.2549 28.8116 31.3438 29.0262 31.3438 29.25Z" fill="#00C3FF"/>
</svg>
